<svg xmlns="http://www.w3.org/2000/svg" viewBox="0 0 96 96" role="img" aria-labelledby="title description">
  <title id="title">Guildhall pact seal</title>
  <desc id="description">One mission record connected to three autonomous agent signatures.</desc>
  <g fill="none" stroke-linecap="square" stroke-linejoin="miter">
    <circle cx="48" cy="48" r="42" stroke="#171713" stroke-width="1.5" />
    <path d="M48 31V15M32.5 57 18.7 65M63.5 57l13.8 8" stroke="#716C60" stroke-width="2" />
    <path d="M36 10.3A40 40 0 0 0 10.4 57M19.3 77.1a40 40 0 0 0 57.4 0M85.6 57A40 40 0 0 0 60 10.3" stroke="#171713" stroke-width="2.5" />
    <path d="m48 29 17 9.8v19.6L48 68l-17-9.6V38.8L48 29Z" fill="#E9E1D0" stroke="#8B3138" stroke-width="3" />
    <path d="m48 38 8.5 5v10L48 58l-8.5-5V43l8.5-5Z" stroke="#171713" stroke-width="2" />
    <path d="M48 38v20M39.5 43l17 10M56.5 43l-17 10" stroke="#716C60" stroke-width="1" />
  </g>
  <g fill="#E9E1D0" stroke-width="2.5">
    <circle cx="48" cy="10" r="6" stroke="#A76F23" />
    <circle cx="16" cy="66" r="6" stroke="#526552" />
    <circle cx="80" cy="66" r="6" stroke="#8B3138" />
  </g>
  <g fill="#171713">
    <circle cx="48" cy="10" r="2" />
    <circle cx="16" cy="66" r="2" />
    <circle cx="80" cy="66" r="2" />
  </g>
</svg>
